# xmcd
#
# Track frame offsets: 
#        150
#        51852
#        62918
#        93199
#        110025
#        137258
#        164099
#        177400
#        195259
#        222160
#        237853
#        270563
#
# Disc length: 3990 seconds
#
# Revision: 1
# Processed by: cddbd v1.5.2PL0 Copyright (c) Steve Scherf et al.
# Submitted via: ExactAudioCopy v0.99pb5
#
DISCID=a80f940c
DTITLE=Various Artist - Sunday Classics - CD1
DYEAR=2004
DGENRE=Classical
TTITLE0=Mozart: Symphonie No 41 in C Major 'Jupiter'
TTITLE1=Elgar: Salut d'amour Op 12
TTITLE2=Ravel: Pavane for a dead Princess
TTITLE3=Tchaikovsky: Serenade for String Orchestra in C Major - Waltz
TTITLE4=Chopin: Nocturne op. 27 - No. 2 in Db major
TTITLE5=Dvorak: Serenade for strings - Tempo di Valse in E Major op. 2
TTITLE5=2
TTITLE6=Saint Saens: Carnival of the animals - The Swan
TTITLE7=Boccherini: String Quintet in E Major - Minuet
TTITLE8=Berlioz: Harold in Italy - Serenade d'un Montagnard des Abruzz
TTITLE8=es a sa Maitresse
TTITLE9=Händel: Largo from Xerxes
TTITLE10=Mozart: Serenade K 204 - Andante Moderato
TTITLE11=Weber: Concerto for Clarinet and Orchestra no. 1 in F minor op.
TTITLE11=73 - Adagio
EXTD=
EXTT0=
EXTT1=
EXTT2=
EXTT3=
EXTT4=
EXTT5=
EXTT6=
EXTT7=
EXTT8=
EXTT9=
EXTT10=
EXTT11=
PLAYORDER=
